<svg width="120" height="120" viewBox="0 0 120 120" xmlns="http://www.w3.org/2000/svg">
  <!-- Red gradient background circle -->
  <defs>
    <linearGradient id="redGradient" x1="0%" y1="0%" x2="100%" y2="100%">
      <stop offset="0%" style="stop-color:#FF4757;stop-opacity:1" />
      <stop offset="100%" style="stop-color:#FF6B7A;stop-opacity:1" />
    </linearGradient>
  </defs>
  
  <!-- Background circle -->
  <circle cx="60" cy="60" r="55" fill="url(#redGradient)" />
  
  <!-- Bull head silhouette -->
  <path d="M 60 30 
           C 45 30, 35 40, 35 50
           C 35 55, 38 60, 42 62
           L 40 75
           C 40 80, 45 85, 60 85
           C 75 85, 80 80, 80 75
           L 78 62
           C 82 60, 85 55, 85 50
           C 85 40, 75 30, 60 30 Z" 
        fill="white" />
  
  <!-- Bull horns -->
  <path d="M 45 35 L 35 25 M 75 35 L 85 25" 
        stroke="white" 
        stroke-width="3" 
        stroke-linecap="round" />
  
  <!-- Bull eyes -->
  <circle cx="50" cy="50" r="3" fill="#FF4757" />
  <circle cx="70" cy="50" r="3" fill="#FF4757" />
  
  <!-- Bull nose -->
  <ellipse cx="60" cy="60" rx="8" ry="6" fill="#FFB8B8" />
  
  <!-- Text -->
  <text x="60" y="105" font-family="Arial, sans-serif" font-size="12" font-weight="bold" text-anchor="middle" fill="white">AI财</text>
</svg>